<svg aria-hidden="true" style="position: absolute; width: 0; height: 0; overflow: hidden;" version="1.1" xmlns="http://www.w3.org/2000/svg" xmlns:xlink="http://www.w3.org/1999/xlink">
<defs>
<symbol id="icon-Ellipse-21" viewBox="0 0 33 32">
<path stroke-linejoin="miter" stroke-linecap="butt" stroke-miterlimit="4" stroke-width="1.6203" d="M24.146 31.886c2.291-1.337 4.237-3.19 5.684-5.413s2.354-4.753 2.649-7.388c0.295-2.636-0.030-5.304-0.95-7.791s-2.408-4.726-4.346-6.536c-1.938-1.81-4.273-3.142-6.817-3.889s-5.229-0.889-7.838-0.415c-2.609 0.474-5.071 1.552-7.19 3.148s-3.835 3.664-5.012 6.040l0.399 0.198c1.146-2.314 2.818-4.329 4.881-5.882s4.461-2.603 7.002-3.065c2.541-0.462 5.155-0.324 7.633 0.404s4.751 2.025 6.639 3.788c1.887 1.763 3.337 3.942 4.232 6.365s1.212 5.021 0.925 7.587c-0.287 2.567-1.171 5.030-2.58 7.195s-3.304 3.97-5.535 5.271l0.224 0.384z"></path>
</symbol>
<symbol id="icon-Profile-1" viewBox="0 0 23 32">
<path fill="#fff" style="fill: var(--color1, #fff)" d="M11.636 1.091c-3.816 0-6.909 3.093-6.909 6.909s3.093 6.909 6.909 6.909c3.816 0 6.909-3.093 6.909-6.909s-3.093-6.909-6.909-6.909zM6.909 8c0-2.611 2.116-4.727 4.727-4.727s4.727 2.116 4.727 4.727c0 2.611-2.116 4.727-4.727 4.727s-4.727-2.116-4.727-4.727z"></path>
<path fill="#fff" style="fill: var(--color1, #fff)" d="M7.273 17.091c-3.816 0-6.909 3.093-6.909 6.909s3.093 6.909 6.909 6.909h8.727c3.816 0 6.909-3.093 6.909-6.909s-3.093-6.909-6.909-6.909h-8.727zM2.545 24c0-2.611 2.116-4.727 4.727-4.727h8.727c2.611 0 4.727 2.116 4.727 4.727s-2.116 4.727-4.727 4.727h-8.727c-2.611 0-4.727-2.116-4.727-4.727z"></path>
</symbol>
<symbol id="icon-search-Filled" viewBox="0 0 32 32">
<path fill="#fff" style="fill: var(--color1, #fff)" d="M30.305 28.221l-6.689-6.689c1.684-2.134 2.7-4.82 2.7-7.743 0-6.907-5.619-12.526-12.526-12.526s-12.526 5.619-12.526 12.526c0 6.907 5.619 12.526 12.526 12.526 2.924 0 5.609-1.014 7.743-2.7l6.689 6.689c0.287 0.287 0.665 0.432 1.042 0.432s0.755-0.144 1.042-0.432c0.576-0.576 0.576-1.508 0-2.084zM4.21 13.789c0-5.282 4.297-9.579 9.579-9.579s9.579 4.297 9.579 9.579-4.297 9.579-9.579 9.579c-5.282 0-9.579-4.297-9.579-9.579z"></path>
</symbol>
<symbol id="icon-Shopping-bag" viewBox="0 0 32 32">
<path fill="#10b981" style="fill: var(--color2, #10b981)" d="M9.667 9.667h-2.002c-0.762 0-1.408 0.559-1.519 1.312l-0.292 1.99c-0.574 3.918-0.574 7.899 0 11.817 0.277 1.892 1.803 3.355 3.705 3.552l0.838 0.087c3.724 0.386 7.479 0.386 11.203 0l0.839-0.087c1.902-0.197 3.428-1.66 3.705-3.552 0.574-3.918 0.574-7.899 0-11.817l-0.292-1.99c-0.11-0.754-0.757-1.312-1.519-1.312h-2.001v-0.16c0-2.89-1.957-5.414-4.756-6.134-1.035-0.266-2.12-0.266-3.155 0-2.799 0.72-4.756 3.243-4.756 6.134v0.16zM14.921 5.31c0.708-0.182 1.45-0.182 2.158 0 1.915 0.492 3.254 2.219 3.254 4.197v0.16h-8.667v-0.16c0-1.978 1.339-3.704 3.254-4.197zM9.667 11.667v3c0 0.552 0.448 1 1 1s1-0.448 1-1v-3h8.667v3c0 0.552 0.448 1 1 1s1-0.448 1-1v-3h1.599l0.233 1.592c0.546 3.726 0.546 7.511 0 11.237-0.145 0.987-0.94 1.75-1.932 1.853l-0.839 0.087c-3.587 0.372-7.203 0.372-10.79 0l-0.838-0.087c-0.992-0.103-1.788-0.866-1.932-1.853-0.546-3.726-0.546-7.511 0-11.237l0.233-1.592h1.599z"></path>
</symbol>
<symbol id="icon-chevron-left" viewBox="0 0 32 32">
<path stroke-linejoin="round" stroke-linecap="round" stroke-miterlimit="4" stroke-width="3.5556" d="M20 24l-8-8 8-8"></path>
</symbol>
<symbol id="icon-chevron-rigth" viewBox="0 0 32 32">
<path stroke-linejoin="round" stroke-linecap="round" stroke-miterlimit="4" stroke-width="3.5556" d="M12 24l8-8-8-8"></path>
</symbol>
<symbol id="icon-Star-1" viewBox="0 0 32 32">
<path fill="#ffd600" style="fill: var(--color3, #ffd600)" d="M16 0l4.321 11.679 11.679 4.321-11.679 4.321-4.321 11.679-4.321-11.679-11.679-4.321 11.679-4.321 4.321-11.679z"></path>
</symbol>
<symbol id="icon-Star-3" viewBox="0 0 34 32">
<path fill="#c00c00" style="fill: var(--color4, #c00c00)" d="M17 0l3.817 11.747h12.351l-9.992 7.26 3.817 11.747-9.992-7.26-9.992 7.26 3.817-11.747-9.992-7.26h12.351l3.817-11.747z"></path>
</symbol>
<symbol id="icon-facebook" viewBox="0 0 32 32">
<path d="M19 6h5v-6h-5c-3.86 0-7 3.14-7 7v3h-4v6h4v16h6v-16h5l1-6h-6v-3c0-0.542 0.458-1 1-1z"></path>
</symbol>
<symbol id="icon-instagram" viewBox="0 0 32 32">
<path d="M16 2.881c4.275 0 4.781 0.019 6.462 0.094 1.563 0.069 2.406 0.331 2.969 0.55 0.744 0.288 1.281 0.638 1.837 1.194 0.563 0.563 0.906 1.094 1.2 1.838 0.219 0.563 0.481 1.412 0.55 2.969 0.075 1.688 0.094 2.194 0.094 6.463s-0.019 4.781-0.094 6.463c-0.069 1.563-0.331 2.406-0.55 2.969-0.288 0.744-0.637 1.281-1.194 1.837-0.563 0.563-1.094 0.906-1.837 1.2-0.563 0.219-1.413 0.481-2.969 0.55-1.688 0.075-2.194 0.094-6.463 0.094s-4.781-0.019-6.463-0.094c-1.563-0.069-2.406-0.331-2.969-0.55-0.744-0.288-1.281-0.637-1.838-1.194-0.563-0.563-0.906-1.094-1.2-1.837-0.219-0.563-0.481-1.413-0.55-2.969-0.075-1.688-0.094-2.194-0.094-6.463s0.019-4.781 0.094-6.463c0.069-1.563 0.331-2.406 0.55-2.969 0.288-0.744 0.638-1.281 1.194-1.838 0.563-0.563 1.094-0.906 1.838-1.2 0.563-0.219 1.412-0.481 2.969-0.55 1.681-0.075 2.188-0.094 6.463-0.094zM16 0c-4.344 0-4.887 0.019-6.594 0.094-1.7 0.075-2.869 0.35-3.881 0.744-1.056 0.412-1.95 0.956-2.837 1.85-0.894 0.888-1.438 1.781-1.85 2.831-0.394 1.019-0.669 2.181-0.744 3.881-0.075 1.713-0.094 2.256-0.094 6.6s0.019 4.887 0.094 6.594c0.075 1.7 0.35 2.869 0.744 3.881 0.413 1.056 0.956 1.95 1.85 2.837 0.887 0.887 1.781 1.438 2.831 1.844 1.019 0.394 2.181 0.669 3.881 0.744 1.706 0.075 2.25 0.094 6.594 0.094s4.888-0.019 6.594-0.094c1.7-0.075 2.869-0.35 3.881-0.744 1.050-0.406 1.944-0.956 2.831-1.844s1.438-1.781 1.844-2.831c0.394-1.019 0.669-2.181 0.744-3.881 0.075-1.706 0.094-2.25 0.094-6.594s-0.019-4.887-0.094-6.594c-0.075-1.7-0.35-2.869-0.744-3.881-0.394-1.063-0.938-1.956-1.831-2.844-0.887-0.887-1.781-1.438-2.831-1.844-1.019-0.394-2.181-0.669-3.881-0.744-1.712-0.081-2.256-0.1-6.6-0.1v0z"></path>
<path d="M16 7.781c-4.537 0-8.219 3.681-8.219 8.219s3.681 8.219 8.219 8.219 8.219-3.681 8.219-8.219c0-4.537-3.681-8.219-8.219-8.219zM16 21.331c-2.944 0-5.331-2.387-5.331-5.331s2.387-5.331 5.331-5.331c2.944 0 5.331 2.387 5.331 5.331s-2.387 5.331-5.331 5.331z"></path>
<path d="M26.462 7.456c0 1.060-0.859 1.919-1.919 1.919s-1.919-0.859-1.919-1.919c0-1.060 0.859-1.919 1.919-1.919s1.919 0.859 1.919 1.919z"></path>
</symbol>
<symbol id="icon-twitter" viewBox="0 0 32 32">
<path d="M32 7.075c-1.175 0.525-2.444 0.875-3.769 1.031 1.356-0.813 2.394-2.1 2.887-3.631-1.269 0.75-2.675 1.3-4.169 1.594-1.2-1.275-2.906-2.069-4.794-2.069-3.625 0-6.563 2.938-6.563 6.563 0 0.512 0.056 1.012 0.169 1.494-5.456-0.275-10.294-2.888-13.531-6.862-0.563 0.969-0.887 2.1-0.887 3.3 0 2.275 1.156 4.287 2.919 5.463-1.075-0.031-2.087-0.331-2.975-0.819 0 0.025 0 0.056 0 0.081 0 3.181 2.263 5.838 5.269 6.437-0.55 0.15-1.131 0.231-1.731 0.231-0.425 0-0.831-0.044-1.237-0.119 0.838 2.606 3.263 4.506 6.131 4.563-2.25 1.762-5.075 2.813-8.156 2.813-0.531 0-1.050-0.031-1.569-0.094 2.913 1.869 6.362 2.95 10.069 2.95 12.075 0 18.681-10.006 18.681-18.681 0-0.287-0.006-0.569-0.019-0.85 1.281-0.919 2.394-2.075 3.275-3.394z"></path>
</symbol>
</defs>
</svg>
